# Blender 4.5.3 LTS
# www.blender.org
mtllib cubo.mtl
o Cube
v 0.915293 0.976515 -0.779271
v 0.915293 -1.023486 -0.779271
v 0.915293 0.976515 1.220729
v 0.915293 -1.023486 1.220729
v -1.000000 1.000000 -1.000000
v -1.000000 -1.000000 -1.000000
v -1.000000 1.000000 1.000000
v -1.000000 -1.000000 1.000000
vn 0.0123 0.9999 -0.0000
vn -0.1145 -0.0000 0.9934
vn -1.0000 -0.0000 -0.0000
vn -0.0123 -0.9999 -0.0000
vn 1.0000 -0.0000 -0.0000
vn 0.1145 -0.0000 -0.9934
vt 0.499217 0.626171
vt 0.499990 0.876000
vt 0.313470 0.876030
vt 0.312697 0.626202
vt 0.311924 0.376373
vt 0.133118 0.626318
vt 0.132345 0.376489
vt 0.878424 0.376368
vt 0.879197 0.626197
vt 0.692678 0.626227
vt 0.691904 0.376399
vt 0.497670 0.126515
vt 0.498444 0.376343
vt 0.311150 0.126545
s 0
usemtl Material
pero 
f 4/5/2 3/4/2 7/6/2 8/7/2
f 8/8/3 7/9/3 5/10/3 6/11/3
f 6/12/4 2/13/4 4/5/4 8/14/4
f 2/13/5 1/1/5 3/4/5 4/5/5
f 6/11/6 5/10/6 1/1/6 2/13/6
